<svg width="37" height="35" viewBox="0 0 37 35" fill="none" xmlns="http://www.w3.org/2000/svg">
<path d="M0 6.39078C0 2.85057 2.85057 0 6.39079 0L28.6092 3.49999e-05C32.1494 3.49999e-05 35 2.8506 35 6.39081V28.6092C35 32.1494 32.1494 35 28.6092 35H23.6425L18.433 35H6.39079C2.85057 35 0 32.1494 0 28.6092V6.39078Z" fill="#383838"/>
<rect x="5" y="6" width="25.4857" height="24" rx="5" stroke="white" stroke-width="2"/>
<path d="M25.6065 12C26.4822 12 27.1922 11.3284 27.1922 10.5C27.1922 9.67157 26.4822 9 25.6065 9C24.7307 9 24.0208 9.67157 24.0208 10.5C24.0208 11.3284 24.7307 12 25.6065 12Z" fill="white"/>
<path d="M17.6778 11C16.2143 11 14.7835 11.4105 13.5666 12.1797C12.3497 12.9489 11.4012 14.0421 10.8411 15.3212C10.281 16.6003 10.1345 18.0078 10.42 19.3656C10.7056 20.7235 11.4103 21.9708 12.4452 22.9497C13.4802 23.9287 14.7987 24.5954 16.2342 24.8655C17.6696 25.1356 19.1575 24.997 20.5097 24.4672C21.8619 23.9373 23.0176 23.0401 23.8307 21.889C24.6438 20.7378 25.0778 19.3845 25.0778 18C25.0778 16.1435 24.2982 14.363 22.9104 13.0503C21.5227 11.7375 19.6404 11 17.6778 11ZM17.6778 22.544C16.7278 22.544 15.799 22.2775 15.0091 21.7782C14.2191 21.2789 13.6034 20.5692 13.2399 19.7389C12.8763 18.9086 12.7811 17.995 12.9665 17.1135C13.1518 16.2321 13.6094 15.4224 14.2812 14.7869C14.953 14.1514 15.8089 13.7187 16.7407 13.5433C17.6725 13.368 18.6384 13.458 19.5161 13.8019C20.3939 14.1458 21.1441 14.7282 21.6719 15.4755C22.1997 16.2228 22.4815 17.1013 22.4815 18C22.4815 19.2051 21.9754 20.3609 21.0745 21.2131C20.1737 22.0652 18.9518 22.544 17.6778 22.544Z" fill="white"/>
</svg>
