<svg width="35" height="40" viewBox="0 0 35 40" fill="none" xmlns="http://www.w3.org/2000/svg">
<path d="M31.25 2.5H3.75C1.67969 2.5 0 4.17969 0 6.25V33.75C0 35.8203 1.67969 37.5 3.75 37.5H31.25C33.3203 37.5 35 35.8203 35 33.75V6.25C35 4.17969 33.3203 2.5 31.25 2.5ZM27.4297 14.9062C27.4453 15.125 27.4453 15.3516 27.4453 15.5703C27.4453 22.3438 22.2891 30.1484 12.8672 30.1484C9.96094 30.1484 7.26562 29.3047 5 27.8516C5.41406 27.8984 5.8125 27.9141 6.23438 27.9141C8.63281 27.9141 10.8359 27.1016 12.5938 25.7266C10.3438 25.6797 8.45312 24.2031 7.80469 22.1719C8.59375 22.2891 9.30469 22.2891 10.1172 22.0781C7.77344 21.6016 6.01562 19.5391 6.01562 17.0469V16.9844C6.69531 17.3672 7.49219 17.6016 8.32812 17.6328C7.62533 17.1653 7.0492 16.5311 6.65115 15.7868C6.25309 15.0425 6.04549 14.2113 6.04688 13.3672C6.04688 12.4141 6.29688 11.5391 6.74219 10.7812C9.26562 13.8906 13.0547 15.9219 17.3047 16.1406C16.5781 12.6641 19.1797 9.84375 22.3047 9.84375C23.7812 9.84375 25.1094 10.4609 26.0469 11.4609C27.2031 11.2422 28.3125 10.8125 29.2969 10.2266C28.9141 11.4141 28.1094 12.4141 27.0469 13.0469C28.0781 12.9375 29.0781 12.6484 30 12.25C29.3047 13.2734 28.4297 14.1797 27.4297 14.9062Z" fill="	#383838"/>
</svg>
